# xmcd CD database file
#
# Track frame offsets:
#	300
#	19066
#	35353
#	54566
#	71929
#	86942
#	103067
#	120222
#	136861
#	153133
#	172869
#	187748
#	204654
#	217089
#	232880
#	247688
#	262996
#	280603
#	295069
#
# Disc length: 4195 seconds
#
# Revision: 0
# Processed by: cddbd v1.5PL3 Copyright (c) Steve Scherf et al.
# Submitted via: CDex 1.50
#
DISCID=fe105f13
DTITLE=DIVA - DIVA BEST - BEST WORLD CD1
DYEAR=1900
DGENRE=kpops
TTITLE0=何で呼ぶの？
TTITLE1=Ah-Man
TTITLE2=守ってくれると言ったのに
TTITLE3=ぴったり
TTITLE4=風、風、風
TTITLE5=この冬に
TTITLE6=迷うな
TTITLE7=感じてみて
TTITLE8=Up and Down
TTITLE9=恋人に一番辛い約束
TTITLE10=Action
TTITLE11=Crazy
TTITLE12=Joy
TTITLE13=知らん、知らん
TTITLE14=DVD
TTITLE15=ゴリ
TTITLE16=Black Maria 
TTITLE17=そう
TTITLE18=12月のドラマ
EXTD=
EXTT0=
EXTT1=
EXTT2=
EXTT3=
EXTT4=
EXTT5=
EXTT6=
EXTT7=
EXTT8=
EXTT9=
EXTT10=
EXTT11=
EXTT12=
EXTT13=
EXTT14=
EXTT15=
EXTT16=
EXTT17=
EXTT18=
PLAYORDER=
